<?xml version="1.0" standalone="no"?>
<!DOCTYPE svg PUBLIC "-//W3C//DTD SVG 20010904//EN"
 "http://www.w3.org/TR/2001/REC-SVG-20010904/DTD/svg10.dtd">
<svg version="1.0" xmlns="http://www.w3.org/2000/svg"
 width="880.000000pt" height="915.000000pt" viewBox="0 0 880.000000 915.000000"
 preserveAspectRatio="xMidYMid meet">

<g transform="translate(0.000000,915.000000) scale(0.100000,-0.100000)"
fill="#000000" stroke="none">
<path d="M3310 8745 c-8 -2 -62 -8 -120 -15 -401 -42 -851 -183 -1171 -365
-62 -36 -115 -65 -117 -65 -6 0 -147 -97 -232 -159 -390 -286 -727 -684 -939
-1108 -218 -438 -331 -914 -331 -1398 0 -661 212 -1310 600 -1835 141 -191
360 -425 511 -546 41 -32 76 -61 79 -64 24 -28 256 -187 341 -235 217 -123
381 -198 584 -266 438 -149 915 -201 1355 -149 161 18 199 25 345 56 123 26
265 69 430 128 142 51 432 195 562 279 39 26 78 47 86 47 8 0 127 -118 263
-262 137 -144 278 -292 314 -328 36 -36 183 -189 326 -340 143 -151 292 -306
330 -345 38 -38 188 -196 334 -350 146 -154 335 -350 420 -436 151 -153 157
-158 224 -178 86 -26 126 -26 212 0 l69 21 278 276 c180 179 284 291 297 318
50 102 49 199 -2 300 -27 54 -64 93 -343 354 -127 117 -288 271 -360 341 -71
69 -231 221 -355 338 -267 250 -431 405 -800 756 -151 144 -299 284 -329 312
l-54 50 21 31 c12 16 22 32 22 35 0 3 20 36 45 74 96 146 233 441 297 643 11
36 27 80 34 98 8 18 14 41 14 51 0 9 6 37 14 62 13 42 32 132 56 264 19 107
40 367 40 500 0 136 -21 397 -40 500 -20 112 -41 210 -56 270 -20 77 -85 285
-95 305 -4 8 -17 41 -28 72 -11 32 -25 66 -30 75 -5 10 -37 77 -71 148 -66
138 -153 287 -229 395 -25 36 -48 67 -51 70 -4 3 -21 26 -38 52 -18 25 -38 52
-45 60 -7 7 -58 66 -115 130 -56 64 -144 154 -195 199 -50 45 -108 96 -127
113 -56 50 -187 146 -295 218 -142 93 -238 145 -460 248 -51 23 -208 84 -260
100 -22 7 -58 18 -80 25 -154 48 -299 78 -555 116 -71 10 -548 22 -580 14z
m587 -790 c164 -31 268 -57 386 -96 537 -179 985 -541 1276 -1029 450 -756
439 -1693 -29 -2440 -225 -359 -554 -657 -937 -849 -152 -76 -174 -85 -318
-133 -274 -90 -416 -112 -745 -112 -266 -1 -320 4 -523 50 -636 143 -1184 544
-1516 1108 -56 96 -129 246 -152 311 -7 22 -16 45 -20 50 -25 38 -94 306 -125
485 -24 134 -24 536 0 670 31 179 96 430 127 490 4 8 22 50 39 94 39 96 58
134 128 256 289 499 765 883 1315 1059 158 50 384 96 517 105 133 9 491 -3
577 -19z"/>
</g>
</svg>
